# xmcd
#
# Track frame offsets:
# 150
# 15075
# 28253
# 43433
# 57195
# 77452
# 90878
# 104069
# 117265
# 131090
# 145896
# 159446
# 171669
# 182164
# 192938
#
# Disc length: 2749 seconds
#
#
# Revision: 0
# Processed by: cddbd v1.5.2PL0 Copyright (c) Steve Scherf et al.
# Submitted via: FreeRIP 2.951 
#
DISCID=ca0abb0f
DTITLE=Louis Armstrong - Louis Armstrong
DYEAR=1900
DGENRE=Oldies
TTITLE0=Jodie Man
TTITLE1=Baby don't you cry
TTITLE2=I'm confession that I love you
TTITLE3=I wonder
TTITLE4=Long, long journey
TTITLE5=Linger in my arms a little longer, Baby
TTITLE6=Whatta ya gonna do
TTITLE7=No variety blues
TTITLE8=Joseph 'n his brudders
TTITLE9=Back O' town blues
TTITLE10=Carry me back to old virginy
TTITLE11=My darling Nellie Gray
TTITLE12=In the shade of the old apple tree
TTITLE13=The old folks at home
TTITLE14=The flat foot floogie
EXTD=
EXTT0=
EXTT1=
EXTT2=
EXTT3=
EXTT4=
EXTT5=
EXTT6=
EXTT7=
EXTT8=
EXTT9=
EXTT10=
EXTT11=
EXTT12=
EXTT13=
EXTT14=
PLAYORDER=
